<svg width="416" height="234" viewBox="0 0 416 234" fill="none" xmlns="http://www.w3.org/2000/svg">
<rect x="0.5" y="0.5" width="415" height="233" stroke="#333333" stroke-opacity="0.3"/>
<path d="M52.96 44.176C52.96 45.5733 52.512 46.672 51.616 47.472C50.72 48.272 49.52 48.6987 48.016 48.752V50H45.552V48.752C44.048 48.6987 42.848 48.272 41.952 47.472C41.056 46.672 40.608 45.5733 40.608 44.176C40.608 42.8213 41.0507 41.7547 41.936 40.976C42.832 40.1973 44.0373 39.7813 45.552 39.728V38.608H48.016V39.728C49.5307 39.7813 50.7307 40.1973 51.616 40.976C52.512 41.7547 52.96 42.8213 52.96 44.176ZM50.56 44.176C50.56 43.3653 50.3413 42.7307 49.904 42.272C49.4667 41.8133 48.8373 41.568 48.016 41.536V46.88C48.8053 46.848 49.424 46.5867 49.872 46.096C50.3307 45.5947 50.56 44.9547 50.56 44.176ZM45.552 46.88V41.536C44.7307 41.568 44.1013 41.8133 43.664 42.272C43.2373 42.7307 43.024 43.3653 43.024 44.176C43.024 44.9547 43.248 45.5947 43.696 46.096C44.144 46.5867 44.7627 46.848 45.552 46.88ZM65.1145 38.608V50H62.6185V42.096H62.5705L58.2825 50H55.4665V38.608H57.9625V46.496H58.0105L62.2985 38.608H65.1145ZM76.5899 38.608V40.736H73.1659V50H70.6539V40.736H67.2299V38.608H76.5899ZM87.1711 38.608V40.736H83.7471V50H81.2351V40.736H77.8111V38.608H87.1711ZM97.8324 38.608V40.656H91.7684V43.136H97.3364V45.104H91.7684V47.904H97.9444V50H89.2884V38.608H97.8324ZM100.479 38.608H105.391C106.671 38.608 107.685 38.9173 108.431 39.536C109.189 40.144 109.567 41.056 109.567 42.272C109.567 43.4667 109.194 44.3733 108.447 44.992C107.701 45.6 106.725 45.904 105.519 45.904H102.959V50H100.479V38.608ZM102.959 40.656V43.936H105.183C106.485 43.936 107.135 43.392 107.135 42.304C107.135 41.2053 106.49 40.656 105.199 40.656H102.959ZM120.916 38.432C120.298 39.6693 119.844 40.8533 119.556 41.984C119.279 43.1147 119.14 44.3573 119.14 45.712C119.14 48.0587 119.743 50.4373 120.948 52.848H119.028C118.367 51.8453 117.85 50.72 117.476 49.472C117.114 48.224 116.932 46.9867 116.932 45.76C116.932 44.48 117.108 43.1893 117.46 41.888C117.823 40.576 118.346 39.424 119.028 38.432H120.916ZM131.187 38.608V40.736H127.763V50H125.251V40.736H121.827V38.608H131.187ZM138.175 38.336C139.839 38.336 141.183 38.8907 142.207 40C143.241 41.0987 143.759 42.5387 143.759 44.32C143.759 46.1013 143.241 47.5413 142.207 48.64C141.183 49.728 139.833 50.272 138.159 50.272C136.473 50.272 135.113 49.728 134.079 48.64C133.044 47.5413 132.527 46.1013 132.527 44.32C132.527 42.5173 133.039 41.072 134.063 39.984C135.097 38.8853 136.468 38.336 138.175 38.336ZM138.143 40.384C137.204 40.384 136.452 40.736 135.887 41.44C135.332 42.144 135.055 43.088 135.055 44.272C135.055 45.4987 135.332 46.4587 135.887 47.152C136.441 47.8453 137.204 48.1973 138.175 48.208C139.124 48.208 139.871 47.856 140.415 47.152C140.959 46.448 141.231 45.488 141.231 44.272C141.231 43.0773 140.953 42.1333 140.399 41.44C139.844 40.736 139.092 40.384 138.143 40.384ZM156.404 38.608L151.94 43.104L156.82 50H153.684L150.228 44.88L148.772 46.32V50H146.308V38.608H148.772V43.344L153.252 38.608H156.404ZM164.287 38.592L168.623 50H165.999L165.103 47.456H160.863L159.935 50H157.375L161.711 38.592H164.287ZM164.495 45.632L162.991 41.392L161.471 45.632H164.495ZM170.392 38.608H175.304C176.584 38.608 177.597 38.9173 178.344 39.536C179.101 40.144 179.48 41.056 179.48 42.272C179.48 43.4667 179.107 44.3733 178.36 44.992C177.613 45.6 176.637 45.904 175.432 45.904H172.872V50H170.392V38.608ZM172.872 40.656V43.936H175.096C176.397 43.936 177.048 43.392 177.048 42.304C177.048 41.2053 176.403 40.656 175.112 40.656H172.872ZM191.032 46.336C191.032 47.552 190.653 48.4693 189.896 49.088C189.149 49.696 188.136 50 186.856 50H181.816V38.608H184.296V42.704H186.984C188.189 42.704 189.165 43.0133 189.912 43.632C190.658 44.24 191.032 45.1413 191.032 46.336ZM188.6 46.304C188.6 45.216 187.949 44.672 186.648 44.672H184.296V47.952H186.664C187.954 47.952 188.6 47.4027 188.6 46.304ZM196.376 38.336H198.328L193.976 50.272H192.008L196.376 38.336ZM210.233 45.6C210.105 47.0293 209.604 48.1653 208.729 49.008C207.854 49.8507 206.654 50.272 205.129 50.272C203.476 50.272 202.142 49.728 201.129 48.64C200.126 47.5413 199.625 46.0907 199.625 44.288C199.625 42.5813 200.132 41.1627 201.145 40.032C202.169 38.9013 203.529 38.336 205.225 38.336C206.58 38.336 207.716 38.72 208.633 39.488C209.55 40.256 210.057 41.232 210.153 42.416H207.705C207.577 41.7867 207.289 41.3013 206.841 40.96C206.404 40.608 205.849 40.432 205.177 40.432C204.484 40.432 203.897 40.6293 203.417 41.024C202.948 41.408 202.617 41.8827 202.425 42.448C202.233 43.0133 202.137 43.632 202.137 44.304C202.137 45.4773 202.409 46.416 202.953 47.12C203.497 47.8133 204.228 48.16 205.145 48.16C206.67 48.16 207.54 47.3067 207.753 45.6H210.233ZM212.701 38.608H218.093C219.159 38.608 220.029 38.848 220.701 39.328C221.383 39.7973 221.725 40.512 221.725 41.472C221.725 42.0053 221.586 42.48 221.309 42.896C221.031 43.3013 220.653 43.6107 220.173 43.824C221.559 44.2187 222.253 45.1467 222.253 46.608C222.253 47.6853 221.89 48.5227 221.165 49.12C220.439 49.7067 219.517 50 218.397 50H212.701V38.608ZM215.133 40.544V43.216H217.405C218.663 43.216 219.293 42.7733 219.293 41.888C219.293 41.3653 219.122 41.0133 218.781 40.832C218.439 40.64 217.981 40.544 217.405 40.544H215.133ZM215.133 44.912V48.016H217.645C218.295 48.016 218.807 47.9093 219.181 47.696C219.565 47.4827 219.757 47.072 219.757 46.464C219.757 45.8453 219.554 45.4347 219.149 45.232C218.754 45.0187 218.21 44.912 217.517 44.912H215.133ZM230.446 38.592L234.782 50H232.158L231.262 47.456H227.022L226.094 50H223.534L227.87 38.592H230.446ZM230.654 45.632L229.15 41.392L227.63 45.632H230.654ZM236.551 38.608H241.463C242.743 38.608 243.757 38.9173 244.503 39.536C245.261 40.144 245.639 41.056 245.639 42.272C245.639 43.4667 245.266 44.3733 244.519 44.992C243.773 45.6 242.797 45.904 241.591 45.904H239.031V50H236.551V38.608ZM239.031 40.656V43.936H241.255C242.557 43.936 243.207 43.392 243.207 42.304C243.207 41.2053 242.562 40.656 241.271 40.656H239.031ZM264.311 52.928H261.895V50H247.975V38.608H250.471V47.872H254.263V38.608H256.759V47.872H260.551V38.608H263.047V47.872H264.311V52.928ZM275.924 38.608V50H273.428V42.096H273.38L269.092 50H266.276V38.608H268.772V46.496H268.82L273.108 38.608H275.924ZM289.063 38.608L284.599 43.104L289.479 50H286.343L282.887 44.88L281.431 46.32V50H278.967V38.608H281.431V43.344L285.911 38.608H289.063ZM290.114 38.432H292.002C293.421 40.608 294.13 42.9813 294.13 45.552C294.13 46.7573 293.943 48.0587 293.57 49.456C293.197 50.8533 292.685 51.984 292.034 52.848H290.13C290.77 51.5467 291.223 50.3467 291.49 49.248C291.767 48.1387 291.906 46.896 291.906 45.52C291.906 42.9387 291.309 40.576 290.114 38.432Z" fill="#333333"/>
<path fill-rule="evenodd" clip-rule="evenodd" d="M47.5 84.5001C47.5 84.2791 47.5878 84.0671 47.7441 83.9108C47.9004 83.7545 48.1123 83.6667 48.3334 83.6667H51.6667C51.8877 83.6667 52.0997 83.7545 52.256 83.9108C52.4122 84.0671 52.5 84.2791 52.5 84.5001V86.1667H55C55.123 86.1668 55.2444 86.1941 55.3556 86.2466C55.4668 86.2991 55.565 86.3756 55.6431 86.4705C55.7213 86.5655 55.7775 86.6766 55.8076 86.7958C55.8377 86.915 55.8411 87.0394 55.8175 87.1601L55.4534 89.0251L54.3475 88.7792L50.1809 87.8534C50.0618 87.8269 49.9383 87.8269 49.8192 87.8534L45.6525 88.7784L44.5467 89.0251L44.1825 87.1601C44.1589 87.0394 44.1623 86.915 44.1925 86.7958C44.2226 86.6766 44.2788 86.5655 44.3569 86.4705C44.4351 86.3756 44.5332 86.2991 44.6444 86.2466C44.7556 86.1941 44.8771 86.1668 45 86.1667H47.5V84.5001ZM42.4234 91.1634L42.3192 91.1867C42.1957 91.2143 42.08 91.2696 41.981 91.3485C41.8821 91.4274 41.8024 91.5278 41.748 91.6421C41.6936 91.7564 41.666 91.8816 41.6672 92.0082C41.6684 92.1347 41.6985 92.2594 41.755 92.3726L43.4217 95.7059C43.4998 95.8623 43.6252 95.9901 43.78 96.0713C43.9347 96.1525 44.1111 96.183 44.2842 96.1584L50 95.3417L55.7159 96.1584C55.8889 96.183 56.0653 96.1525 56.2201 96.0713C56.3749 95.9901 56.5002 95.8623 56.5784 95.7059L58.245 92.3726C58.3016 92.2594 58.3316 92.1347 58.3329 92.0082C58.3341 91.8816 58.3065 91.7564 58.2521 91.6421C58.1977 91.5278 58.118 91.4274 58.019 91.3485C57.9201 91.2696 57.8044 91.2143 57.6809 91.1867L57.5767 91.1634C57.4905 91.1713 57.4036 91.1656 57.3192 91.1467L53.9859 90.4059L50 89.5201L46.0142 90.4059L42.6809 91.1476C42.5964 91.1662 42.5095 91.1715 42.4234 91.1634ZM47.7234 97.5042C48.0074 97.1797 48.3575 96.9196 48.7502 96.7414C49.1429 96.5632 49.5692 96.471 50.0004 96.471C50.4317 96.471 50.858 96.5632 51.2507 96.7414C51.6434 96.9196 51.9935 97.1797 52.2775 97.5042L52.3067 97.5376C52.5157 97.7767 52.8045 97.9316 53.1193 97.9734C53.4341 98.0153 53.7533 97.9412 54.0175 97.7651C54.419 97.4976 54.8794 97.3317 55.3592 97.2818C55.839 97.2318 56.3238 97.2993 56.7717 97.4784L57.8092 97.8926C58.011 97.9769 58.1716 98.1372 58.2563 98.3389C58.3409 98.5406 58.3429 98.7675 58.2617 98.9707C58.1806 99.1738 58.0228 99.3369 57.8224 99.4247C57.6221 99.5125 57.3952 99.518 57.1909 99.4401L56.1534 99.0251C55.9563 98.9463 55.743 98.9167 55.5319 98.9388C55.3208 98.9608 55.1182 99.0339 54.9417 99.1517C54.3411 99.5521 53.6154 99.7204 52.8999 99.6254C52.1844 99.5303 51.5278 99.1784 51.0525 98.6351L51.0234 98.6017C50.8958 98.4558 50.7385 98.3388 50.562 98.2587C50.3855 98.1785 50.1939 98.1371 50 98.1371C49.8062 98.1371 49.6146 98.1785 49.4381 98.2587C49.2616 98.3388 49.1043 98.4558 48.9767 98.6017L48.9475 98.6351C48.4723 99.1784 47.8157 99.5303 47.1002 99.6254C46.3847 99.7204 45.659 99.5521 45.0584 99.1517C44.8818 99.0339 44.6793 98.9608 44.4682 98.9388C44.2571 98.9167 44.0438 98.9463 43.8467 99.0251L42.8092 99.4401C42.7072 99.4827 42.5978 99.5046 42.4872 99.5045C42.3767 99.5044 42.2673 99.4824 42.1653 99.4396C42.0634 99.3968 41.971 99.3342 41.8936 99.2553C41.8161 99.1765 41.755 99.083 41.714 98.9804C41.673 98.8777 41.6528 98.768 41.6547 98.6574C41.6565 98.5469 41.6803 98.4379 41.7246 98.3366C41.769 98.2354 41.8331 98.144 41.9131 98.0678C41.9932 97.9915 42.0876 97.932 42.1909 97.8926L43.2284 97.4784C43.6763 97.2993 44.161 97.2318 44.6408 97.2818C45.1206 97.3317 45.5811 97.4976 45.9825 97.7651C46.2467 97.9412 46.566 98.0153 46.8808 97.9734C47.1956 97.9316 47.4844 97.7767 47.6934 97.5376L47.7234 97.5042Z" fill="#BD0007"/>
<path d="M83.204 86.032V87.544H80.026V96H78.276V87.544H75.098V86.032H83.204ZM82.8384 91.002C83.0064 89.3687 84.061 88.552 86.0024 88.552C86.9077 88.552 87.6264 88.7293 88.1584 89.084C88.6997 89.4387 88.9704 89.9893 88.9704 90.736V94.404C88.9704 94.6093 88.9937 94.7493 89.0404 94.824C89.0964 94.8987 89.199 94.936 89.3484 94.936C89.4604 94.936 89.5817 94.9267 89.7124 94.908V96.028C89.3017 96.1307 88.9564 96.182 88.6764 96.182C87.995 96.182 87.603 95.8927 87.5004 95.314C86.8937 95.8927 86.049 96.182 84.9664 96.182C84.2197 96.182 83.627 95.9907 83.1884 95.608C82.7497 95.216 82.5304 94.6887 82.5304 94.026C82.5304 93.8207 82.5537 93.6293 82.6004 93.452C82.647 93.2747 82.6984 93.1207 82.7544 92.99C82.8197 92.8593 82.9177 92.738 83.0484 92.626C83.1884 92.514 83.3004 92.4207 83.3844 92.346C83.4777 92.2713 83.6224 92.2013 83.8184 92.136C84.0237 92.0707 84.173 92.024 84.2664 91.996C84.369 91.9587 84.5417 91.9213 84.7844 91.884C85.027 91.8467 85.1857 91.8233 85.2604 91.814C85.3444 91.7953 85.5124 91.772 85.7644 91.744C86.3337 91.6693 86.721 91.6087 86.9264 91.562C87.1317 91.506 87.2717 91.4267 87.3464 91.324C87.4117 91.2493 87.4444 91.0767 87.4444 90.806C87.4444 90.078 86.9497 89.714 85.9604 89.714C85.4377 89.714 85.055 89.812 84.8124 90.008C84.5697 90.204 84.4157 90.5353 84.3504 91.002H82.8384ZM87.4304 92.374C87.309 92.4393 87.169 92.5 87.0104 92.556C86.8517 92.6027 86.721 92.6353 86.6184 92.654C86.525 92.6633 86.371 92.682 86.1564 92.71C85.951 92.738 85.8157 92.7567 85.7504 92.766C85.5544 92.794 85.4004 92.822 85.2884 92.85C85.1764 92.8687 85.0364 92.906 84.8684 92.962C84.7097 93.018 84.5837 93.088 84.4904 93.172C84.4064 93.2467 84.3317 93.354 84.2664 93.494C84.201 93.6247 84.1684 93.7833 84.1684 93.97C84.1684 94.3153 84.2804 94.5813 84.5044 94.768C84.7377 94.9547 85.0597 95.048 85.4704 95.048C86.1797 95.048 86.7257 94.8567 87.1084 94.474C87.323 94.2593 87.4304 93.844 87.4304 93.228V92.374ZM92.2837 96H90.6877V88.776H92.2837V91.604H95.4477V88.776H97.0437V96H95.4477V92.864H92.2837V96ZM105.475 96H103.543L101.275 92.766L100.323 93.76V96H98.7267V88.776H100.323V91.982L103.207 88.776H105.153L102.339 91.674L105.475 96ZM112.55 93.746C112.373 94.53 111.986 95.1413 111.388 95.58C110.8 96.0187 110.096 96.238 109.274 96.238C108.182 96.238 107.314 95.888 106.67 95.188C106.036 94.4787 105.718 93.5733 105.718 92.472C105.718 91.3427 106.045 90.4093 106.698 89.672C107.361 88.9347 108.201 88.566 109.218 88.566C110.273 88.566 111.108 88.93 111.724 89.658C112.34 90.3767 112.648 91.3613 112.648 92.612V92.78H107.314C107.333 93.508 107.515 94.0727 107.86 94.474C108.206 94.866 108.686 95.062 109.302 95.062C109.741 95.062 110.096 94.9593 110.366 94.754C110.646 94.5393 110.866 94.2033 111.024 93.746H112.55ZM111.052 91.716C111.006 91.1093 110.814 90.6333 110.478 90.288C110.152 89.9333 109.727 89.756 109.204 89.756C108.682 89.756 108.257 89.924 107.93 90.26C107.613 90.596 107.417 91.0813 107.342 91.716H111.052ZM115.387 88.776V89.742C115.873 88.958 116.657 88.566 117.739 88.566C118.738 88.566 119.536 88.916 120.133 89.616C120.731 90.316 121.029 91.2493 121.029 92.416C121.029 93.5547 120.735 94.4693 120.147 95.16C119.569 95.8413 118.794 96.182 117.823 96.182C116.797 96.182 116.013 95.804 115.471 95.048V98.674H113.889V88.776H115.387ZM117.417 89.854C116.792 89.854 116.302 90.078 115.947 90.526C115.593 90.974 115.415 91.5947 115.415 92.388C115.415 93.172 115.593 93.788 115.947 94.236C116.311 94.684 116.811 94.908 117.445 94.908C118.052 94.908 118.533 94.684 118.887 94.236C119.242 93.788 119.419 93.1813 119.419 92.416C119.419 91.632 119.237 91.0113 118.873 90.554C118.519 90.0873 118.033 89.854 117.417 89.854ZM130.755 86.144V96H129.047V89.224H126.611V88.048C128.309 88.048 129.261 87.4133 129.467 86.144H130.755ZM139.934 86.256V87.642H136.028L135.58 90.162C136.019 89.6953 136.635 89.462 137.428 89.462C138.333 89.462 139.066 89.756 139.626 90.344C140.186 90.932 140.466 91.7067 140.466 92.668C140.466 93.704 140.139 94.5487 139.486 95.202C138.833 95.8553 137.993 96.182 136.966 96.182C135.995 96.182 135.207 95.916 134.6 95.384C134.003 94.8427 133.685 94.1193 133.648 93.214H135.23C135.267 93.718 135.449 94.1193 135.776 94.418C136.103 94.7167 136.513 94.866 137.008 94.866C137.587 94.866 138.035 94.684 138.352 94.32C138.669 93.9467 138.828 93.424 138.828 92.752C138.828 92.0987 138.665 91.5947 138.338 91.24C138.011 90.876 137.559 90.694 136.98 90.694C136.28 90.694 135.734 90.988 135.342 91.576L133.942 91.534L134.88 86.256H139.934ZM144.899 86.116C147.176 86.116 148.315 87.81 148.315 91.198C148.315 92.8313 148.03 94.0727 147.461 94.922C146.892 95.7713 146.056 96.196 144.955 96.196C142.678 96.196 141.539 94.5207 141.539 91.17C141.539 89.518 141.824 88.2627 142.393 87.404C142.962 86.5453 143.798 86.116 144.899 86.116ZM144.913 87.46C144.633 87.46 144.39 87.516 144.185 87.628C143.98 87.7307 143.812 87.894 143.681 88.118C143.56 88.3327 143.462 88.552 143.387 88.776C143.312 88.9907 143.256 89.266 143.219 89.602C143.191 89.938 143.172 90.218 143.163 90.442C143.154 90.6567 143.149 90.932 143.149 91.268C143.149 92.528 143.289 93.4427 143.569 94.012C143.858 94.5813 144.316 94.866 144.941 94.866C145.184 94.866 145.398 94.8193 145.585 94.726C145.781 94.6233 145.94 94.502 146.061 94.362C146.182 94.222 146.285 94.0353 146.369 93.802C146.453 93.5687 146.514 93.3587 146.551 93.172C146.598 92.976 146.63 92.738 146.649 92.458C146.677 92.1687 146.691 91.9493 146.691 91.8C146.7 91.6413 146.705 91.4407 146.705 91.198C146.705 90.8807 146.7 90.638 146.691 90.47C146.691 90.2927 146.677 90.0313 146.649 89.686C146.621 89.3313 146.565 89.0467 146.481 88.832C146.406 88.6173 146.304 88.3933 146.173 88.16C146.052 87.9267 145.884 87.754 145.669 87.642C145.454 87.5207 145.202 87.46 144.913 87.46ZM156.575 86.116C158.852 86.116 159.991 87.81 159.991 91.198C159.991 92.8313 159.706 94.0727 159.137 94.922C158.568 95.7713 157.732 96.196 156.631 96.196C154.354 96.196 153.215 94.5207 153.215 91.17C153.215 89.518 153.5 88.2627 154.069 87.404C154.638 86.5453 155.474 86.116 156.575 86.116ZM156.589 87.46C156.309 87.46 156.066 87.516 155.861 87.628C155.656 87.7307 155.488 87.894 155.357 88.118C155.236 88.3327 155.138 88.552 155.063 88.776C154.988 88.9907 154.932 89.266 154.895 89.602C154.867 89.938 154.848 90.218 154.839 90.442C154.83 90.6567 154.825 90.932 154.825 91.268C154.825 92.528 154.965 93.4427 155.245 94.012C155.534 94.5813 155.992 94.866 156.617 94.866C156.86 94.866 157.074 94.8193 157.261 94.726C157.457 94.6233 157.616 94.502 157.737 94.362C157.858 94.222 157.961 94.0353 158.045 93.802C158.129 93.5687 158.19 93.3587 158.227 93.172C158.274 92.976 158.306 92.738 158.325 92.458C158.353 92.1687 158.367 91.9493 158.367 91.8C158.376 91.6413 158.381 91.4407 158.381 91.198C158.381 90.8807 158.376 90.638 158.367 90.47C158.367 90.2927 158.353 90.0313 158.325 89.686C158.297 89.3313 158.241 89.0467 158.157 88.832C158.082 88.6173 157.98 88.3933 157.849 88.16C157.728 87.9267 157.56 87.754 157.345 87.642C157.13 87.5207 156.878 87.46 156.589 87.46ZM164.354 86.116C166.632 86.116 167.77 87.81 167.77 91.198C167.77 92.8313 167.486 94.0727 166.916 94.922C166.347 95.7713 165.512 96.196 164.41 96.196C162.133 96.196 160.994 94.5207 160.994 91.17C160.994 89.518 161.279 88.2627 161.848 87.404C162.418 86.5453 163.253 86.116 164.354 86.116ZM164.368 87.46C164.088 87.46 163.846 87.516 163.64 87.628C163.435 87.7307 163.267 87.894 163.136 88.118C163.015 88.3327 162.917 88.552 162.842 88.776C162.768 88.9907 162.712 89.266 162.674 89.602C162.646 89.938 162.628 90.218 162.618 90.442C162.609 90.6567 162.604 90.932 162.604 91.268C162.604 92.528 162.744 93.4427 163.024 94.012C163.314 94.5813 163.771 94.866 164.396 94.866C164.639 94.866 164.854 94.8193 165.04 94.726C165.236 94.6233 165.395 94.502 165.516 94.362C165.638 94.222 165.74 94.0353 165.824 93.802C165.908 93.5687 165.969 93.3587 166.006 93.172C166.053 92.976 166.086 92.738 166.104 92.458C166.132 92.1687 166.146 91.9493 166.146 91.8C166.156 91.6413 166.16 91.4407 166.16 91.198C166.16 90.8807 166.156 90.638 166.146 90.47C166.146 90.2927 166.132 90.0313 166.104 89.686C166.076 89.3313 166.02 89.0467 165.936 88.832C165.862 88.6173 165.759 88.3933 165.628 88.16C165.507 87.9267 165.339 87.754 165.124 87.642C164.91 87.5207 164.658 87.46 164.368 87.46ZM172.134 86.116C174.411 86.116 175.55 87.81 175.55 91.198C175.55 92.8313 175.265 94.0727 174.696 94.922C174.126 95.7713 173.291 96.196 172.19 96.196C169.912 96.196 168.774 94.5207 168.774 91.17C168.774 89.518 169.058 88.2627 169.628 87.404C170.197 86.5453 171.032 86.116 172.134 86.116ZM172.148 87.46C171.868 87.46 171.625 87.516 171.42 87.628C171.214 87.7307 171.046 87.894 170.916 88.118C170.794 88.3327 170.696 88.552 170.622 88.776C170.547 88.9907 170.491 89.266 170.454 89.602C170.426 89.938 170.407 90.218 170.398 90.442C170.388 90.6567 170.384 90.932 170.384 91.268C170.384 92.528 170.524 93.4427 170.804 94.012C171.093 94.5813 171.55 94.866 172.176 94.866C172.418 94.866 172.633 94.8193 172.82 94.726C173.016 94.6233 173.174 94.502 173.296 94.362C173.417 94.222 173.52 94.0353 173.604 93.802C173.688 93.5687 173.748 93.3587 173.786 93.172C173.832 92.976 173.865 92.738 173.884 92.458C173.912 92.1687 173.926 91.9493 173.926 91.8C173.935 91.6413 173.94 91.4407 173.94 91.198C173.94 90.8807 173.935 90.638 173.926 90.47C173.926 90.2927 173.912 90.0313 173.884 89.686C173.856 89.3313 173.8 89.0467 173.716 88.832C173.641 88.6173 173.538 88.3933 173.408 88.16C173.286 87.9267 173.118 87.754 172.904 87.642C172.689 87.5207 172.437 87.46 172.148 87.46ZM180.995 86.032H184.789C185.48 86.032 186.087 86.1067 186.609 86.256C187.132 86.396 187.613 86.662 188.051 87.054C189.031 87.9313 189.521 89.196 189.521 90.848C189.521 92.612 189.055 93.9607 188.121 94.894C187.711 95.3047 187.263 95.594 186.777 95.762C186.301 95.9207 185.671 96 184.887 96H180.995V86.032ZM182.731 87.516V94.53H184.789C185.881 94.53 186.651 94.2127 187.099 93.578C187.547 92.9433 187.771 92.0613 187.771 90.932C187.771 89.8587 187.519 89.0233 187.015 88.426C186.511 87.8193 185.732 87.516 184.677 87.516H182.731ZM190.161 86.032H191.939L193.759 93.62L195.803 86.032H197.581L199.555 93.62L201.431 86.032H203.209L200.451 96H198.673L196.657 88.342L194.599 96H192.793L190.161 86.032ZM211.474 86.032V87.544H208.296V96H206.546V87.544H203.368V86.032H211.474Z" fill="#333333"/>
<path d="M56.7188 125.75H51.25C50.7527 125.75 50.2758 125.552 49.9242 125.201C49.5725 124.849 49.375 124.372 49.375 123.875V118.406C49.375 118.365 49.3585 118.325 49.3292 118.296C49.2999 118.266 49.2602 118.25 49.2188 118.25H45.625C44.962 118.25 44.3261 118.513 43.8572 118.982C43.3884 119.451 43.125 120.087 43.125 120.75V133.25C43.125 133.913 43.3884 134.549 43.8572 135.018C44.3261 135.487 44.962 135.75 45.625 135.75H54.375C55.038 135.75 55.6739 135.487 56.1428 135.018C56.6116 134.549 56.875 133.913 56.875 133.25V125.906C56.875 125.865 56.8585 125.825 56.8292 125.796C56.7999 125.766 56.7602 125.75 56.7188 125.75ZM53.125 132H46.875C46.7092 132 46.5503 131.934 46.4331 131.817C46.3158 131.7 46.25 131.541 46.25 131.375C46.25 131.209 46.3158 131.05 46.4331 130.933C46.5503 130.816 46.7092 130.75 46.875 130.75H53.125C53.2908 130.75 53.4497 130.816 53.5669 130.933C53.6842 131.05 53.75 131.209 53.75 131.375C53.75 131.541 53.6842 131.7 53.5669 131.817C53.4497 131.934 53.2908 132 53.125 132ZM53.125 128.875H46.875C46.7092 128.875 46.5503 128.809 46.4331 128.692C46.3158 128.575 46.25 128.416 46.25 128.25C46.25 128.084 46.3158 127.925 46.4331 127.808C46.5503 127.691 46.7092 127.625 46.875 127.625H53.125C53.2908 127.625 53.4497 127.691 53.5669 127.808C53.6842 127.925 53.75 128.084 53.75 128.25C53.75 128.416 53.6842 128.575 53.5669 128.692C53.4497 128.809 53.2908 128.875 53.125 128.875Z" fill="#BD0007"/>
<path d="M56.3758 124.367L50.7582 118.749C50.7473 118.738 50.7334 118.731 50.7183 118.728C50.7032 118.725 50.6875 118.727 50.6733 118.732C50.659 118.738 50.6469 118.748 50.6383 118.761C50.6297 118.774 50.6251 118.789 50.625 118.804V123.875C50.625 124.041 50.6908 124.2 50.8081 124.317C50.9253 124.434 51.0842 124.5 51.25 124.5H56.3207C56.3361 124.5 56.3511 124.495 56.3639 124.487C56.3767 124.478 56.3867 124.466 56.3926 124.452C56.3985 124.438 56.4 124.422 56.397 124.407C56.394 124.392 56.3866 124.378 56.3758 124.367Z" fill="#BD0007"/>
<path d="M84.394 121.032L80.404 125.008L84.646 131H82.476L79.2 126.226L77.772 127.654V131H76.036V121.032H77.772V125.554L82.182 121.032H84.394ZM88.77 123.566C89.8713 123.566 90.7487 123.911 91.402 124.602C92.0553 125.293 92.382 126.221 92.382 127.388C92.382 128.564 92.0553 129.497 91.402 130.188C90.758 130.879 89.8807 131.224 88.77 131.224C87.6407 131.224 86.7447 130.879 86.082 130.188C85.4193 129.497 85.088 128.564 85.088 127.388C85.088 126.221 85.4193 125.293 86.082 124.602C86.754 123.911 87.65 123.566 88.77 123.566ZM90.226 125.512C89.8713 125.055 89.3767 124.826 88.742 124.826C88.1073 124.826 87.608 125.055 87.244 125.512C86.88 125.969 86.698 126.595 86.698 127.388C86.698 128.2 86.88 128.835 87.244 129.292C87.608 129.749 88.112 129.978 88.756 129.978C89.3813 129.978 89.8713 129.749 90.226 129.292C90.59 128.825 90.772 128.186 90.772 127.374C90.772 126.581 90.59 125.96 90.226 125.512ZM95.3188 131H93.7228V123.776H95.3188V126.604H98.4828V123.776H100.079V131H98.4828V127.864H95.3188V131ZM107.348 125.036H104.968V131H103.372V125.036H100.992V123.776H107.348V125.036ZM109.782 123.776V124.742C110.267 123.958 111.051 123.566 112.134 123.566C113.133 123.566 113.931 123.916 114.528 124.616C115.125 125.316 115.424 126.249 115.424 127.416C115.424 128.555 115.13 129.469 114.542 130.16C113.963 130.841 113.189 131.182 112.218 131.182C111.191 131.182 110.407 130.804 109.866 130.048V133.674H108.284V123.776H109.782ZM111.812 124.854C111.187 124.854 110.697 125.078 110.342 125.526C109.987 125.974 109.81 126.595 109.81 127.388C109.81 128.172 109.987 128.788 110.342 129.236C110.706 129.684 111.205 129.908 111.84 129.908C112.447 129.908 112.927 129.684 113.282 129.236C113.637 128.788 113.814 128.181 113.814 127.416C113.814 126.632 113.632 126.011 113.268 125.554C112.913 125.087 112.428 124.854 111.812 124.854ZM116.745 126.002C116.913 124.369 117.967 123.552 119.909 123.552C120.814 123.552 121.533 123.729 122.065 124.084C122.606 124.439 122.877 124.989 122.877 125.736V129.404C122.877 129.609 122.9 129.749 122.947 129.824C123.003 129.899 123.105 129.936 123.255 129.936C123.367 129.936 123.488 129.927 123.619 129.908V131.028C123.208 131.131 122.863 131.182 122.583 131.182C121.901 131.182 121.509 130.893 121.407 130.314C120.8 130.893 119.955 131.182 118.873 131.182C118.126 131.182 117.533 130.991 117.095 130.608C116.656 130.216 116.437 129.689 116.437 129.026C116.437 128.821 116.46 128.629 116.507 128.452C116.553 128.275 116.605 128.121 116.661 127.99C116.726 127.859 116.824 127.738 116.955 127.626C117.095 127.514 117.207 127.421 117.291 127.346C117.384 127.271 117.529 127.201 117.725 127.136C117.93 127.071 118.079 127.024 118.173 126.996C118.275 126.959 118.448 126.921 118.691 126.884C118.933 126.847 119.092 126.823 119.167 126.814C119.251 126.795 119.419 126.772 119.671 126.744C120.24 126.669 120.627 126.609 120.833 126.562C121.038 126.506 121.178 126.427 121.253 126.324C121.318 126.249 121.351 126.077 121.351 125.806C121.351 125.078 120.856 124.714 119.867 124.714C119.344 124.714 118.961 124.812 118.719 125.008C118.476 125.204 118.322 125.535 118.257 126.002H116.745ZM121.337 127.374C121.215 127.439 121.075 127.5 120.917 127.556C120.758 127.603 120.627 127.635 120.525 127.654C120.431 127.663 120.277 127.682 120.063 127.71C119.857 127.738 119.722 127.757 119.657 127.766C119.461 127.794 119.307 127.822 119.195 127.85C119.083 127.869 118.943 127.906 118.775 127.962C118.616 128.018 118.49 128.088 118.397 128.172C118.313 128.247 118.238 128.354 118.173 128.494C118.107 128.625 118.075 128.783 118.075 128.97C118.075 129.315 118.187 129.581 118.411 129.768C118.644 129.955 118.966 130.048 119.377 130.048C120.086 130.048 120.632 129.857 121.015 129.474C121.229 129.259 121.337 128.844 121.337 128.228V127.374ZM131.342 131H129.41L127.142 127.766L126.19 128.76V131H124.594V123.776H126.19V126.982L129.074 123.776H131.02L128.206 126.674L131.342 131ZM137.699 125.036H135.319V131H133.723V125.036H131.343V123.776H137.699V125.036ZM148.762 123.692H147.222C147.054 122.796 146.559 122.348 145.738 122.348C145.505 122.348 145.29 122.395 145.094 122.488C144.898 122.581 144.735 122.689 144.604 122.81C144.473 122.931 144.357 123.109 144.254 123.342C144.151 123.566 144.072 123.757 144.016 123.916C143.969 124.065 143.918 124.285 143.862 124.574C143.815 124.863 143.787 125.064 143.778 125.176C143.769 125.288 143.75 125.475 143.722 125.736C144.263 124.933 145.01 124.532 145.962 124.532C146.867 124.532 147.595 124.831 148.146 125.428C148.706 126.025 148.986 126.805 148.986 127.766C148.986 128.765 148.673 129.586 148.048 130.23C147.432 130.874 146.643 131.196 145.682 131.196C144.553 131.196 143.685 130.771 143.078 129.922C142.471 129.073 142.168 127.859 142.168 126.282C142.168 124.649 142.49 123.375 143.134 122.46C143.778 121.545 144.669 121.088 145.808 121.088C146.639 121.088 147.315 121.317 147.838 121.774C148.361 122.231 148.669 122.871 148.762 123.692ZM145.64 125.806C145.117 125.806 144.702 125.988 144.394 126.352C144.086 126.707 143.932 127.183 143.932 127.78C143.932 128.405 144.091 128.909 144.408 129.292C144.735 129.675 145.159 129.866 145.682 129.866C146.195 129.866 146.606 129.679 146.914 129.306C147.231 128.933 147.39 128.438 147.39 127.822C147.39 127.215 147.231 126.73 146.914 126.366C146.597 125.993 146.172 125.806 145.64 125.806ZM152.929 131V128.06H150.031V126.73H152.929V123.79H154.357V126.73H157.269V128.06H154.357V131H152.929ZM163.018 120.794L159 131.238H157.586L161.632 120.794H163.018ZM167.534 126.408V127.892H163.432V126.408H167.534ZM175.215 129.586V131H168.523C168.533 130.561 168.593 130.16 168.705 129.796C168.817 129.432 168.943 129.124 169.083 128.872C169.233 128.611 169.447 128.349 169.727 128.088C170.017 127.817 170.273 127.598 170.497 127.43C170.731 127.253 171.048 127.029 171.449 126.758C171.477 126.739 171.613 126.651 171.855 126.492C172.107 126.324 172.261 126.221 172.317 126.184C172.373 126.137 172.499 126.039 172.695 125.89C172.891 125.731 173.017 125.605 173.073 125.512C173.139 125.419 173.223 125.293 173.325 125.134C173.437 124.975 173.512 124.817 173.549 124.658C173.587 124.49 173.605 124.313 173.605 124.126C173.605 123.613 173.461 123.211 173.171 122.922C172.891 122.623 172.509 122.474 172.023 122.474C171.743 122.474 171.501 122.521 171.295 122.614C171.09 122.698 170.927 122.81 170.805 122.95C170.693 123.09 170.6 123.272 170.525 123.496C170.451 123.711 170.399 123.916 170.371 124.112C170.353 124.308 170.339 124.537 170.329 124.798H168.775V124.546C168.775 123.491 169.069 122.656 169.657 122.04C170.255 121.415 171.057 121.102 172.065 121.102C173.017 121.102 173.783 121.373 174.361 121.914C174.94 122.446 175.229 123.155 175.229 124.042C175.229 124.397 175.173 124.733 175.061 125.05C174.949 125.367 174.828 125.624 174.697 125.82C174.576 126.016 174.361 126.245 174.053 126.506C173.745 126.767 173.517 126.949 173.367 127.052C173.218 127.155 172.943 127.341 172.541 127.612C171.375 128.368 170.675 129.026 170.441 129.586H175.215Z" fill="#333333"/>
<rect width="101" height="37" transform="translate(40 162)" fill="#133D8D"/>
<path d="M63.437 174.744V184H61.812V176.148H57.574V184H55.949V174.744H63.437ZM68.2688 177.097C69.2915 177.097 70.1062 177.418 70.7128 178.059C71.3195 178.7 71.6228 179.563 71.6228 180.646C71.6228 181.738 71.3195 182.605 70.7128 183.246C70.1148 183.887 69.3002 184.208 68.2688 184.208C67.2202 184.208 66.3882 183.887 65.7728 183.246C65.1575 182.605 64.8498 181.738 64.8498 180.646C64.8498 179.563 65.1575 178.7 65.7728 178.059C66.3968 177.418 67.2288 177.097 68.2688 177.097ZM69.6208 178.904C69.2915 178.479 68.8322 178.267 68.2428 178.267C67.6535 178.267 67.1898 178.479 66.8518 178.904C66.5138 179.329 66.3448 179.909 66.3448 180.646C66.3448 181.4 66.5138 181.989 66.8518 182.414C67.1898 182.839 67.6578 183.051 68.2558 183.051C68.8365 183.051 69.2915 182.839 69.6208 182.414C69.9588 181.981 70.1278 181.387 70.1278 180.633C70.1278 179.896 69.9588 179.32 69.6208 178.904ZM79.6055 186.132H78.2015V184H73.4305V186.132H72.0265V182.83H72.8715C73.4002 181.591 73.6645 179.996 73.6645 178.046V177.292H78.7085V182.83H79.6055V186.132ZM77.2525 182.83V178.436H75.0815V178.891C75.0815 179.593 75.0079 180.33 74.8605 181.101C74.7132 181.864 74.5572 182.44 74.3925 182.83H77.2525ZM81.9275 177.292V178.189C82.3781 177.461 83.1061 177.097 84.1115 177.097C85.0388 177.097 85.7798 177.422 86.3345 178.072C86.8891 178.722 87.1665 179.589 87.1665 180.672C87.1665 181.729 86.8935 182.579 86.3475 183.22C85.8101 183.853 85.0908 184.169 84.1895 184.169C83.2361 184.169 82.5081 183.818 82.0055 183.116V186.483H80.5365V177.292H81.9275ZM83.8125 178.293C83.2318 178.293 82.7768 178.501 82.4475 178.917C82.1181 179.333 81.9535 179.909 81.9535 180.646C81.9535 181.374 82.1181 181.946 82.4475 182.362C82.7855 182.778 83.2491 182.986 83.8385 182.986C84.4018 182.986 84.8481 182.778 85.1775 182.362C85.5068 181.946 85.6715 181.383 85.6715 180.672C85.6715 179.944 85.5025 179.368 85.1645 178.943C84.8351 178.51 84.3845 178.293 83.8125 178.293ZM91.5647 177.097C92.5874 177.097 93.4021 177.418 94.0087 178.059C94.6154 178.7 94.9187 179.563 94.9187 180.646C94.9187 181.738 94.6154 182.605 94.0087 183.246C93.4107 183.887 92.5961 184.208 91.5647 184.208C90.5161 184.208 89.6841 183.887 89.0687 183.246C88.4534 182.605 88.1457 181.738 88.1457 180.646C88.1457 179.563 88.4534 178.7 89.0687 178.059C89.6927 177.418 90.5247 177.097 91.5647 177.097ZM92.9167 178.904C92.5874 178.479 92.1281 178.267 91.5387 178.267C90.9494 178.267 90.4857 178.479 90.1477 178.904C89.8097 179.329 89.6407 179.909 89.6407 180.646C89.6407 181.4 89.8097 181.989 90.1477 182.414C90.4857 182.839 90.9537 183.051 91.5517 183.051C92.1324 183.051 92.5874 182.839 92.9167 182.414C93.2547 181.981 93.4237 181.387 93.4237 180.633C93.4237 179.896 93.2547 179.32 92.9167 178.904ZM102.612 180.724C102.612 181.773 102.317 182.613 101.728 183.246C101.138 183.87 100.354 184.182 99.3748 184.182C97.8668 184.182 96.8528 183.562 96.3328 182.323C96.1075 181.803 95.9948 181.097 95.9948 180.204C95.9948 178.445 96.2765 177.132 96.8398 176.265C97.1345 175.814 97.4941 175.481 97.9188 175.264C98.3435 175.039 98.8808 174.904 99.5308 174.861C99.6088 174.852 99.7128 174.844 99.8428 174.835C99.9815 174.826 100.077 174.822 100.129 174.822C100.189 174.813 100.263 174.805 100.35 174.796C100.445 174.779 100.51 174.766 100.545 174.757C100.588 174.74 100.636 174.722 100.688 174.705C100.74 174.679 100.779 174.649 100.805 174.614C100.831 174.579 100.857 174.54 100.883 174.497H102.365C102.339 174.653 102.3 174.796 102.248 174.926C102.204 175.056 102.157 175.169 102.105 175.264C102.053 175.359 101.975 175.446 101.871 175.524C101.775 175.602 101.693 175.667 101.624 175.719C101.563 175.771 101.463 175.819 101.325 175.862C101.186 175.905 101.078 175.94 101 175.966C100.922 175.983 100.796 176.005 100.623 176.031C100.449 176.048 100.319 176.061 100.233 176.07C100.155 176.079 100.012 176.092 99.8038 176.109C99.6045 176.118 99.4615 176.126 99.3748 176.135C98.1788 176.23 97.3945 177.071 97.0218 178.657H97.0608C97.3468 178.198 97.6805 177.855 98.0618 177.63C98.4431 177.396 98.9458 177.279 99.5698 177.279C100.436 177.279 101.16 177.595 101.741 178.228C102.321 178.861 102.612 179.693 102.612 180.724ZM101.13 180.724C101.13 180.039 100.961 179.489 100.623 179.073C100.293 178.657 99.8558 178.449 99.3098 178.449C98.7638 178.449 98.3218 178.657 97.9838 179.073C97.6545 179.48 97.4898 180.031 97.4898 180.724C97.4898 181.417 97.6545 181.972 97.9838 182.388C98.3218 182.804 98.7638 183.012 99.3098 183.012C99.8558 183.012 100.293 182.804 100.623 182.388C100.961 181.972 101.13 181.417 101.13 180.724ZM105.352 184H103.87V177.292H105.352V179.918H108.29V177.292H109.772V184H108.29V181.088H105.352V184ZM117.341 181.907C117.176 182.635 116.816 183.203 116.262 183.61C115.716 184.017 115.061 184.221 114.299 184.221C113.285 184.221 112.479 183.896 111.881 183.246C111.291 182.587 110.997 181.747 110.997 180.724C110.997 179.675 111.3 178.809 111.907 178.124C112.522 177.439 113.302 177.097 114.247 177.097C115.226 177.097 116.002 177.435 116.574 178.111C117.146 178.778 117.432 179.693 117.432 180.854V181.01H112.479C112.496 181.686 112.665 182.21 112.986 182.583C113.306 182.947 113.753 183.129 114.325 183.129C114.732 183.129 115.061 183.034 115.313 182.843C115.573 182.644 115.776 182.332 115.924 181.907H117.341ZM115.95 180.022C115.906 179.459 115.729 179.017 115.417 178.696C115.113 178.367 114.719 178.202 114.234 178.202C113.748 178.202 113.354 178.358 113.051 178.67C112.756 178.982 112.574 179.433 112.505 180.022H115.95ZM124.564 181.907C124.4 182.635 124.04 183.203 123.485 183.61C122.939 184.017 122.285 184.221 121.522 184.221C120.508 184.221 119.702 183.896 119.104 183.246C118.515 182.587 118.22 181.747 118.22 180.724C118.22 179.675 118.524 178.809 119.13 178.124C119.746 177.439 120.526 177.097 121.47 177.097C122.45 177.097 123.225 177.435 123.797 178.111C124.369 178.778 124.655 179.693 124.655 180.854V181.01H119.702C119.72 181.686 119.889 182.21 120.209 182.583C120.53 182.947 120.976 183.129 121.548 183.129C121.956 183.129 122.285 183.034 122.536 182.843C122.796 182.644 123 182.332 123.147 181.907H124.564ZM123.173 180.022C123.13 179.459 122.952 179.017 122.64 178.696C122.337 178.367 121.943 178.202 121.457 178.202C120.972 178.202 120.578 178.358 120.274 178.67C119.98 178.982 119.798 179.433 119.728 180.022H123.173Z" fill="white"/>
</svg>
